<svg xmlns="http://www.w3.org/2000/svg" viewBox="0 0 64 64" fill="none">
  <g fill="#000000"><ellipse cx="32" cy="11" rx="8" ry="9"/><ellipse cx="13" cy="26" rx="6" ry="10" transform="rotate(-42 13 26)"/><ellipse cx="51" cy="26" rx="6" ry="10" transform="rotate(42 51 26)"/><ellipse cx="16" cy="49" rx="5" ry="8" transform="rotate(40 16 49)"/><ellipse cx="48" cy="49" rx="5" ry="8" transform="rotate(-40 48 49)"/><path d="m28 54 4 8 4-8z"/><ellipse cx="32" cy="35" rx="18" ry="22"/></g>
  <path d="m32 22 10 7v12l-10 8-10-8V29zM32 14v8M14 28l8 1m20 0 8-1M17 48l5-7m20 0 5 7M32 49v8" stroke="#000000" stroke-width="2.5" stroke-linejoin="round"/>
  <circle cx="29" cy="8" r="1.1" fill="#000000"/><circle cx="35" cy="8" r="1.1" fill="#000000"/>
</svg>
